<svg width="32" height="32" viewBox="0 0 32 32" fill="none" xmlns="http://www.w3.org/2000/svg">
<g id="close-square">
<g id="vuesax/outline/close-square">
<g id="close-square_2">
<path id="Vector" d="M8.88069 25.0057C8.40265 25.0057 7.92462 24.8296 7.54722 24.4522C6.81759 23.7226 6.81759 22.5149 7.54722 21.7853L21.7876 7.5449C22.5172 6.81527 23.7249 6.81527 24.4545 7.5449C25.1842 8.27454 25.1842 9.4822 24.4545 10.2118L10.2142 24.4522C9.86192 24.8296 9.35872 25.0057 8.88069 25.0057Z" fill="#292D32"/>
<path id="Vector_2" d="M23.1211 25.0057C22.643 25.0057 22.165 24.8296 21.7876 24.4522L7.54722 10.2118C6.81759 9.4822 6.81759 8.27454 7.54722 7.5449C8.27686 6.81527 9.48452 6.81527 10.2142 7.5449L24.4545 21.7853C25.1842 22.5149 25.1842 23.7226 24.4545 24.4522C24.0772 24.8296 23.5991 25.0057 23.1211 25.0057Z" fill="#292D32"/>
</g>
</g>
</g>
</svg>
